# Blender v2.79 (sub 0) OBJ File: '02-glass table.blend'
# www.blender.org
mtllib 02-glass table.mtl
o Cylinder.003
v -2.877188 -0.279052 -1.542916
v -2.877188 2.263732 -1.542916
v -2.841901 -0.279052 -1.539441
v -2.841901 2.263732 -1.539441
v -2.807969 -0.279052 -1.529148
v -2.807969 2.263732 -1.529148
v -2.776698 -0.279052 -1.512433
v -2.776698 2.263732 -1.512433
v -2.749288 -0.279052 -1.489938
v -2.749288 2.263732 -1.489938
v -2.726794 -0.279052 -1.462529
v -2.726794 2.263732 -1.462529
v -2.710079 -0.279052 -1.431257
v -2.710079 2.263732 -1.431257
v -2.699786 -0.279052 -1.397326
v -2.699786 2.263732 -1.397326
v -2.696311 -0.279052 -1.362039
v -2.696311 2.263732 -1.362039
v -2.699786 -0.279052 -1.326751
v -2.699786 2.263732 -1.326751
v -2.710079 -0.279052 -1.292820
v -2.710079 2.263732 -1.292820
v -2.726794 -0.279052 -1.261549
v -2.726794 2.263732 -1.261549
v -2.749288 -0.279052 -1.234139
v -2.749288 2.263732 -1.234139
v -2.776698 -0.279052 -1.211645
v -2.776698 2.263732 -1.211645
v -2.807969 -0.279052 -1.194930
v -2.807969 2.263732 -1.194930
v -2.841901 -0.279052 -1.184637
v -2.841901 2.263732 -1.184637
v -2.877188 -0.279052 -1.181161
v -2.877188 2.263732 -1.181161
v -2.912476 -0.279052 -1.184637
v -2.912476 2.263732 -1.184637
v -2.946407 -0.279052 -1.194930
v -2.946407 2.263732 -1.194930
v -2.977678 -0.279052 -1.211645
v -2.977678 2.263732 -1.211645
v -3.005088 -0.279052 -1.234139
v -3.005088 2.263732 -1.234139
v -3.027582 -0.279052 -1.261549
v -3.027582 2.263732 -1.261549
v -3.044297 -0.279052 -1.292820
v -3.044297 2.263732 -1.292820
v -3.054590 -0.279052 -1.326751
v -3.054590 2.263732 -1.326751
v -3.058065 -0.279052 -1.362039
v -3.058065 2.263732 -1.362039
v -3.054590 -0.279052 -1.397326
v -3.054590 2.263732 -1.397326
v -3.044297 -0.279052 -1.431258
v -3.044297 2.263732 -1.431258
v -3.027582 -0.279052 -1.462529
v -3.027582 2.263732 -1.462529
v -3.005087 -0.279052 -1.489938
v -3.005087 2.263732 -1.489938
v -2.977678 -0.279052 -1.512433
v -2.977678 2.263732 -1.512433
v -2.946407 -0.279052 -1.529148
v -2.946407 2.263732 -1.529148
v -2.912475 -0.279052 -1.539441
v -2.912475 2.263732 -1.539441
vn 0.0000 -0.6857 -0.7279
vn 0.0000 0.6857 -0.7279
vn 0.1420 0.6857 -0.7139
vn 0.1420 -0.6857 -0.7139
vn 0.2785 0.6857 -0.6725
vn 0.2785 -0.6857 -0.6725
vn 0.4044 0.6857 -0.6052
vn 0.4044 -0.6857 -0.6052
vn 0.5147 0.6857 -0.5147
vn 0.5147 -0.6857 -0.5147
vn 0.6052 0.6857 -0.4044
vn 0.6052 -0.6857 -0.4044
vn 0.6725 0.6857 -0.2785
vn 0.6725 -0.6857 -0.2785
vn 0.7139 0.6857 -0.1420
vn 0.7139 -0.6857 -0.1420
vn 0.7279 0.6857 0.0000
vn 0.7279 -0.6857 0.0000
vn 0.7139 0.6857 0.1420
vn 0.7139 -0.6857 0.1420
vn 0.6725 0.6857 0.2785
vn 0.6725 -0.6857 0.2785
vn 0.6052 0.6857 0.4044
vn 0.6052 -0.6857 0.4044
vn 0.5147 0.6857 0.5147
vn 0.5147 -0.6857 0.5147
vn 0.4044 0.6857 0.6052
vn 0.4044 -0.6857 0.6052
vn 0.2785 0.6857 0.6725
vn 0.2785 -0.6857 0.6725
vn 0.1420 0.6857 0.7139
vn 0.1420 -0.6857 0.7139
vn 0.0000 0.6857 0.7279
vn 0.0000 -0.6857 0.7279
vn -0.1420 0.6857 0.7139
vn -0.1420 -0.6857 0.7139
vn -0.2785 0.6857 0.6725
vn -0.2785 -0.6857 0.6725
vn -0.4044 0.6857 0.6052
vn -0.4044 -0.6857 0.6052
vn -0.5147 0.6857 0.5147
vn -0.5147 -0.6857 0.5147
vn -0.6052 0.6857 0.4044
vn -0.6052 -0.6857 0.4044
vn -0.6725 0.6857 0.2785
vn -0.6725 -0.6857 0.2785
vn -0.7139 0.6857 0.1420
vn -0.7139 -0.6857 0.1420
vn -0.7279 0.6857 0.0000
vn -0.7279 -0.6857 0.0000
vn -0.7139 0.6857 -0.1420
vn -0.7139 -0.6857 -0.1420
vn -0.6725 0.6857 -0.2785
vn -0.6725 -0.6857 -0.2785
vn -0.6052 0.6857 -0.4044
vn -0.6052 -0.6857 -0.4044
vn -0.5147 0.6857 -0.5147
vn -0.5147 -0.6857 -0.5147
vn -0.4044 0.6857 -0.6052
vn -0.4044 -0.6857 -0.6052
vn -0.2785 0.6857 -0.6725
vn -0.2785 -0.6857 -0.6725
vn -0.1420 0.6857 -0.7139
vn -0.1420 -0.6857 -0.7139
usemtl Material.002
s 1
f 1//1 2//2 4//3 3//4
f 3//4 4//3 6//5 5//6
f 5//6 6//5 8//7 7//8
f 7//8 8//7 10//9 9//10
f 9//10 10//9 12//11 11//12
f 11//12 12//11 14//13 13//14
f 13//14 14//13 16//15 15//16
f 15//16 16//15 18//17 17//18
f 17//18 18//17 20//19 19//20
f 19//20 20//19 22//21 21//22
f 21//22 22//21 24//23 23//24
f 23//24 24//23 26//25 25//26
f 25//26 26//25 28//27 27//28
f 27//28 28//27 30//29 29//30
f 29//30 30//29 32//31 31//32
f 31//32 32//31 34//33 33//34
f 33//34 34//33 36//35 35//36
f 35//36 36//35 38//37 37//38
f 37//38 38//37 40//39 39//40
f 39//40 40//39 42//41 41//42
f 41//42 42//41 44//43 43//44
f 43//44 44//43 46//45 45//46
f 45//46 46//45 48//47 47//48
f 47//48 48//47 50//49 49//50
f 49//50 50//49 52//51 51//52
f 51//52 52//51 54//53 53//54
f 53//54 54//53 56//55 55//56
f 55//56 56//55 58//57 57//58
f 57//58 58//57 60//59 59//60
f 59//60 60//59 62//61 61//62
f 4//3 2//2 64//63 62//61 60//59 58//57 56//55 54//53 52//51 50//49 48//47 46//45 44//43 42//41 40//39 38//37 36//35 34//33 32//31 30//29 28//27 26//25 24//23 22//21 20//19 18//17 16//15 14//13 12//11 10//9 8//7 6//5
f 61//62 62//61 64//63 63//64
f 63//64 64//63 2//2 1//1
f 1//1 3//4 5//6 7//8 9//10 11//12 13//14 15//16 17//18 19//20 21//22 23//24 25//26 27//28 29//30 31//32 33//34 35//36 37//38 39//40 41//42 43//44 45//46 47//48 49//50 51//52 53//54 55//56 57//58 59//60 61//62 63//64
o Cylinder.002
v 2.884345 -0.279052 -1.542916
v 2.884345 2.263732 -1.542916
v 2.919633 -0.279052 -1.539441
v 2.919633 2.263732 -1.539441
v 2.953564 -0.279052 -1.529148
v 2.953564 2.263732 -1.529148
v 2.984835 -0.279052 -1.512433
v 2.984835 2.263732 -1.512433
v 3.012245 -0.279052 -1.489938
v 3.012245 2.263732 -1.489938
v 3.034739 -0.279052 -1.462529
v 3.034739 2.263732 -1.462529
v 3.051454 -0.279052 -1.431257
v 3.051454 2.263732 -1.431257
v 3.061747 -0.279052 -1.397326
v 3.061747 2.263732 -1.397326
v 3.065223 -0.279052 -1.362039
v 3.065223 2.263732 -1.362039
v 3.061747 -0.279052 -1.326751
v 3.061747 2.263732 -1.326751
v 3.051454 -0.279052 -1.292820
v 3.051454 2.263732 -1.292820
v 3.034739 -0.279052 -1.261549
v 3.034739 2.263732 -1.261549
v 3.012245 -0.279052 -1.234139
v 3.012245 2.263732 -1.234139
v 2.984835 -0.279052 -1.211645
v 2.984835 2.263732 -1.211645
v 2.953564 -0.279052 -1.194930
v 2.953564 2.263732 -1.194930
v 2.919633 -0.279052 -1.184637
v 2.919633 2.263732 -1.184637
v 2.884345 -0.279052 -1.181161
v 2.884345 2.263732 -1.181161
v 2.849058 -0.279052 -1.184637
v 2.849058 2.263732 -1.184637
v 2.815126 -0.279052 -1.194930
v 2.815126 2.263732 -1.194930
v 2.783855 -0.279052 -1.211645
v 2.783855 2.263732 -1.211645
v 2.756446 -0.279052 -1.234139
v 2.756446 2.263732 -1.234139
v 2.733951 -0.279052 -1.261549
v 2.733951 2.263732 -1.261549
v 2.717236 -0.279052 -1.292820
v 2.717236 2.263732 -1.292820
v 2.706943 -0.279052 -1.326751
v 2.706943 2.263732 -1.326751
v 2.703468 -0.279052 -1.362039
v 2.703468 2.263732 -1.362039
v 2.706944 -0.279052 -1.397326
v 2.706944 2.263732 -1.397326
v 2.717237 -0.279052 -1.431258
v 2.717237 2.263732 -1.431258
v 2.733951 -0.279052 -1.462529
v 2.733951 2.263732 -1.462529
v 2.756446 -0.279052 -1.489938
v 2.756446 2.263732 -1.489938
v 2.783855 -0.279052 -1.512433
v 2.783855 2.263732 -1.512433
v 2.815127 -0.279052 -1.529148
v 2.815127 2.263732 -1.529148
v 2.849058 -0.279052 -1.539441
v 2.849058 2.263732 -1.539441
vn 0.0000 -0.6857 -0.7279
vn 0.0000 0.6857 -0.7279
vn 0.1420 0.6857 -0.7139
vn 0.1420 -0.6857 -0.7139
vn 0.2785 0.6857 -0.6725
vn 0.2785 -0.6857 -0.6725
vn 0.4044 0.6857 -0.6052
vn 0.4044 -0.6857 -0.6052
vn 0.5147 0.6857 -0.5147
vn 0.5147 -0.6857 -0.5147
vn 0.6052 0.6857 -0.4044
vn 0.6052 -0.6857 -0.4044
vn 0.6725 0.6857 -0.2785
vn 0.6725 -0.6857 -0.2785
vn 0.7139 0.6857 -0.1420
vn 0.7139 -0.6857 -0.1420
vn 0.7279 0.6857 0.0000
vn 0.7279 -0.6857 0.0000
vn 0.7139 0.6857 0.1420
vn 0.7139 -0.6857 0.1420
vn 0.6725 0.6857 0.2785
vn 0.6725 -0.6857 0.2785
vn 0.6052 0.6857 0.4044
vn 0.6052 -0.6857 0.4044
vn 0.5147 0.6857 0.5147
vn 0.5147 -0.6857 0.5147
vn 0.4044 0.6857 0.6052
vn 0.4044 -0.6857 0.6052
vn 0.2785 0.6857 0.6725
vn 0.2785 -0.6857 0.6725
vn 0.1420 0.6857 0.7139
vn 0.1420 -0.6857 0.7139
vn 0.0000 0.6857 0.7279
vn 0.0000 -0.6857 0.7279
vn -0.1420 0.6857 0.7139
vn -0.1420 -0.6857 0.7139
vn -0.2785 0.6857 0.6725
vn -0.2785 -0.6857 0.6725
vn -0.4044 0.6857 0.6052
vn -0.4044 -0.6857 0.6052
vn -0.5147 0.6857 0.5147
vn -0.5147 -0.6857 0.5147
vn -0.6052 0.6857 0.4044
vn -0.6052 -0.6857 0.4044
vn -0.6725 0.6857 0.2785
vn -0.6725 -0.6857 0.2785
vn -0.7139 0.6857 0.1420
vn -0.7139 -0.6857 0.1420
vn -0.7279 0.6857 0.0000
vn -0.7279 -0.6857 0.0000
vn -0.7139 0.6857 -0.1420
vn -0.7139 -0.6857 -0.1420
vn -0.6725 0.6857 -0.2785
vn -0.6725 -0.6857 -0.2785
vn -0.6052 0.6857 -0.4044
vn -0.6052 -0.6857 -0.4044
vn -0.5147 0.6857 -0.5147
vn -0.5147 -0.6857 -0.5147
vn -0.4044 0.6857 -0.6052
vn -0.4044 -0.6857 -0.6052
vn -0.2785 0.6857 -0.6725
vn -0.2785 -0.6857 -0.6725
vn -0.1420 0.6857 -0.7139
vn -0.1420 -0.6857 -0.7139
usemtl Material.004
s 1
f 65//65 66//66 68//67 67//68
f 67//68 68//67 70//69 69//70
f 69//70 70//69 72//71 71//72
f 71//72 72//71 74//73 73//74
f 73//74 74//73 76//75 75//76
f 75//76 76//75 78//77 77//78
f 77//78 78//77 80//79 79//80
f 79//80 80//79 82//81 81//82
f 81//82 82//81 84//83 83//84
f 83//84 84//83 86//85 85//86
f 85//86 86//85 88//87 87//88
f 87//88 88//87 90//89 89//90
f 89//90 90//89 92//91 91//92
f 91//92 92//91 94//93 93//94
f 93//94 94//93 96//95 95//96
f 95//96 96//95 98//97 97//98
f 97//98 98//97 100//99 99//100
f 99//100 100//99 102//101 101//102
f 101//102 102//101 104//103 103//104
f 103//104 104//103 106//105 105//106
f 105//106 106//105 108//107 107//108
f 107//108 108//107 110//109 109//110
f 109//110 110//109 112//111 111//112
f 111//112 112//111 114//113 113//114
f 113//114 114//113 116//115 115//116
f 115//116 116//115 118//117 117//118
f 117//118 118//117 120//119 119//120
f 119//120 120//119 122//121 121//122
f 121//122 122//121 124//123 123//124
f 123//124 124//123 126//125 125//126
f 68//67 66//66 128//127 126//125 124//123 122//121 120//119 118//117 116//115 114//113 112//111 110//109 108//107 106//105 104//103 102//101 100//99 98//97 96//95 94//93 92//91 90//89 88//87 86//85 84//83 82//81 80//79 78//77 76//75 74//73 72//71 70//69
f 125//126 126//125 128//127 127//128
f 127//128 128//127 66//66 65//65
f 65//65 67//68 69//70 71//72 73//74 75//76 77//78 79//80 81//82 83//84 85//86 87//88 89//90 91//92 93//94 95//96 97//98 99//100 101//102 103//104 105//106 107//108 109//110 111//112 113//114 115//116 117//118 119//120 121//122 123//124 125//126 127//128
o Cylinder.001
v 2.884345 -0.279052 1.191128
v 2.884345 2.263732 1.191128
v 2.919633 -0.279052 1.194604
v 2.919633 2.263732 1.194604
v 2.953564 -0.279052 1.204896
v 2.953564 2.263732 1.204896
v 2.984835 -0.279052 1.221611
v 2.984835 2.263732 1.221611
v 3.012245 -0.279052 1.244106
v 3.012245 2.263732 1.244106
v 3.034739 -0.279052 1.271515
v 3.034739 2.263732 1.271515
v 3.051454 -0.279052 1.302787
v 3.051454 2.263732 1.302787
v 3.061747 -0.279052 1.336718
v 3.061747 2.263732 1.336718
v 3.065223 -0.279052 1.372005
v 3.065223 2.263732 1.372005
v 3.061747 -0.279052 1.407293
v 3.061747 2.263732 1.407293
v 3.051454 -0.279052 1.441224
v 3.051454 2.263732 1.441224
v 3.034739 -0.279052 1.472496
v 3.034739 2.263732 1.472496
v 3.012245 -0.279052 1.499905
v 3.012245 2.263732 1.499905
v 2.984835 -0.279052 1.522400
v 2.984835 2.263732 1.522400
v 2.953564 -0.279052 1.539114
v 2.953564 2.263732 1.539114
v 2.919633 -0.279052 1.549407
v 2.919633 2.263732 1.549407
v 2.884345 -0.279052 1.552883
v 2.884345 2.263732 1.552883
v 2.849058 -0.279052 1.549407
v 2.849058 2.263732 1.549407
v 2.815126 -0.279052 1.539114
v 2.815126 2.263732 1.539114
v 2.783855 -0.279052 1.522400
v 2.783855 2.263732 1.522400
v 2.756446 -0.279052 1.499905
v 2.756446 2.263732 1.499905
v 2.733951 -0.279052 1.472495
v 2.733951 2.263732 1.472495
v 2.717236 -0.279052 1.441224
v 2.717236 2.263732 1.441224
v 2.706943 -0.279052 1.407293
v 2.706943 2.263732 1.407293
v 2.703468 -0.279052 1.372005
v 2.703468 2.263732 1.372005
v 2.706944 -0.279052 1.336718
v 2.706944 2.263732 1.336718
v 2.717237 -0.279052 1.302786
v 2.717237 2.263732 1.302786
v 2.733951 -0.279052 1.271515
v 2.733951 2.263732 1.271515
v 2.756446 -0.279052 1.244106
v 2.756446 2.263732 1.244106
v 2.783855 -0.279052 1.221611
v 2.783855 2.263732 1.221611
v 2.815127 -0.279052 1.204896
v 2.815127 2.263732 1.204896
v 2.849058 -0.279052 1.194603
v 2.849058 2.263732 1.194603
vn 0.0000 -0.6857 -0.7279
vn 0.0000 0.6857 -0.7279
vn 0.1420 0.6857 -0.7139
vn 0.1420 -0.6857 -0.7139
vn 0.2785 0.6857 -0.6725
vn 0.2785 -0.6857 -0.6725
vn 0.4044 0.6857 -0.6052
vn 0.4044 -0.6857 -0.6052
vn 0.5147 0.6857 -0.5147
vn 0.5147 -0.6857 -0.5147
vn 0.6052 0.6857 -0.4044
vn 0.6052 -0.6857 -0.4044
vn 0.6725 0.6857 -0.2785
vn 0.6725 -0.6857 -0.2785
vn 0.7139 0.6857 -0.1420
vn 0.7139 -0.6857 -0.1420
vn 0.7279 0.6857 0.0000
vn 0.7279 -0.6857 0.0000
vn 0.7139 0.6857 0.1420
vn 0.7139 -0.6857 0.1420
vn 0.6725 0.6857 0.2785
vn 0.6725 -0.6857 0.2785
vn 0.6052 0.6857 0.4044
vn 0.6052 -0.6857 0.4044
vn 0.5147 0.6857 0.5147
vn 0.5147 -0.6857 0.5147
vn 0.4044 0.6857 0.6052
vn 0.4044 -0.6857 0.6052
vn 0.2785 0.6857 0.6725
vn 0.2785 -0.6857 0.6725
vn 0.1420 0.6857 0.7139
vn 0.1420 -0.6857 0.7139
vn 0.0000 0.6857 0.7279
vn 0.0000 -0.6857 0.7279
vn -0.1420 0.6857 0.7139
vn -0.1420 -0.6857 0.7139
vn -0.2785 0.6857 0.6725
vn -0.2785 -0.6857 0.6725
vn -0.4044 0.6857 0.6052
vn -0.4044 -0.6857 0.6052
vn -0.5147 0.6857 0.5147
vn -0.5147 -0.6857 0.5147
vn -0.6052 0.6857 0.4044
vn -0.6052 -0.6857 0.4044
vn -0.6725 0.6857 0.2785
vn -0.6725 -0.6857 0.2785
vn -0.7139 0.6857 0.1420
vn -0.7139 -0.6857 0.1420
vn -0.7279 0.6857 0.0000
vn -0.7279 -0.6857 0.0000
vn -0.7139 0.6857 -0.1420
vn -0.7139 -0.6857 -0.1420
vn -0.6725 0.6857 -0.2785
vn -0.6725 -0.6857 -0.2785
vn -0.6052 0.6857 -0.4044
vn -0.6052 -0.6857 -0.4044
vn -0.5147 0.6857 -0.5147
vn -0.5147 -0.6857 -0.5147
vn -0.4044 0.6857 -0.6052
vn -0.4044 -0.6857 -0.6052
vn -0.2785 0.6857 -0.6725
vn -0.2785 -0.6857 -0.6725
vn -0.1420 0.6857 -0.7139
vn -0.1420 -0.6857 -0.7139
usemtl Material.003
s 1
f 129//129 130//130 132//131 131//132
f 131//132 132//131 134//133 133//134
f 133//134 134//133 136//135 135//136
f 135//136 136//135 138//137 137//138
f 137//138 138//137 140//139 139//140
f 139//140 140//139 142//141 141//142
f 141//142 142//141 144//143 143//144
f 143//144 144//143 146//145 145//146
f 145//146 146//145 148//147 147//148
f 147//148 148//147 150//149 149//150
f 149//150 150//149 152//151 151//152
f 151//152 152//151 154//153 153//154
f 153//154 154//153 156//155 155//156
f 155//156 156//155 158//157 157//158
f 157//158 158//157 160//159 159//160
f 159//160 160//159 162//161 161//162
f 161//162 162//161 164//163 163//164
f 163//164 164//163 166//165 165//166
f 165//166 166//165 168//167 167//168
f 167//168 168//167 170//169 169//170
f 169//170 170//169 172//171 171//172
f 171//172 172//171 174//173 173//174
f 173//174 174//173 176//175 175//176
f 175//176 176//175 178//177 177//178
f 177//178 178//177 180//179 179//180
f 179//180 180//179 182//181 181//182
f 181//182 182//181 184//183 183//184
f 183//184 184//183 186//185 185//186
f 185//186 186//185 188//187 187//188
f 187//188 188//187 190//189 189//190
f 132//131 130//130 192//191 190//189 188//187 186//185 184//183 182//181 180//179 178//177 176//175 174//173 172//171 170//169 168//167 166//165 164//163 162//161 160//159 158//157 156//155 154//153 152//151 150//149 148//147 146//145 144//143 142//141 140//139 138//137 136//135 134//133
f 189//190 190//189 192//191 191//192
f 191//192 192//191 130//130 129//129
f 129//129 131//132 133//134 135//136 137//138 139//140 141//142 143//144 145//146 147//148 149//150 151//152 153//154 155//156 157//158 159//160 161//162 163//164 165//166 167//168 169//170 171//172 173//174 175//176 177//178 179//180 181//182 183//184 185//186 187//188 189//190 191//192
o Cylinder
v -2.891502 -0.279052 1.191128
v -2.891502 2.263732 1.191128
v -2.856215 -0.279052 1.194604
v -2.856215 2.263732 1.194604
v -2.822284 -0.279052 1.204896
v -2.822284 2.263732 1.204896
v -2.791012 -0.279052 1.221611
v -2.791012 2.263732 1.221611
v -2.763603 -0.279052 1.244106
v -2.763603 2.263732 1.244106
v -2.741108 -0.279052 1.271515
v -2.741108 2.263732 1.271515
v -2.724393 -0.279052 1.302787
v -2.724393 2.263732 1.302787
v -2.714100 -0.279052 1.336718
v -2.714100 2.263732 1.336718
v -2.710625 -0.279052 1.372005
v -2.710625 2.263732 1.372005
v -2.714100 -0.279052 1.407293
v -2.714100 2.263732 1.407293
v -2.724393 -0.279052 1.441224
v -2.724393 2.263732 1.441224
v -2.741108 -0.279052 1.472496
v -2.741108 2.263732 1.472496
v -2.763603 -0.279052 1.499905
v -2.763603 2.263732 1.499905
v -2.791012 -0.279052 1.522400
v -2.791012 2.263732 1.522400
v -2.822284 -0.279052 1.539114
v -2.822284 2.263732 1.539114
v -2.856215 -0.279052 1.549407
v -2.856215 2.263732 1.549407
v -2.891502 -0.279052 1.552883
v -2.891502 2.263732 1.552883
v -2.926790 -0.279052 1.549407
v -2.926790 2.263732 1.549407
v -2.960721 -0.279052 1.539114
v -2.960721 2.263732 1.539114
v -2.991992 -0.279052 1.522400
v -2.991992 2.263732 1.522400
v -3.019402 -0.279052 1.499905
v -3.019402 2.263732 1.499905
v -3.041897 -0.279052 1.472495
v -3.041897 2.263732 1.472495
v -3.058611 -0.279052 1.441224
v -3.058611 2.263732 1.441224
v -3.068904 -0.279052 1.407293
v -3.068904 2.263732 1.407293
v -3.072380 -0.279052 1.372005
v -3.072380 2.263732 1.372005
v -3.068904 -0.279052 1.336718
v -3.068904 2.263732 1.336718
v -3.058611 -0.279052 1.302786
v -3.058611 2.263732 1.302786
v -3.041896 -0.279052 1.271515
v -3.041896 2.263732 1.271515
v -3.019402 -0.279052 1.244106
v -3.019402 2.263732 1.244106
v -2.991992 -0.279052 1.221611
v -2.991992 2.263732 1.221611
v -2.960721 -0.279052 1.204896
v -2.960721 2.263732 1.204896
v -2.926790 -0.279052 1.194603
v -2.926790 2.263732 1.194603
vn 0.0000 -0.6857 -0.7279
vn 0.0000 0.6857 -0.7279
vn 0.1420 0.6857 -0.7139
vn 0.1420 -0.6857 -0.7139
vn 0.2785 0.6857 -0.6725
vn 0.2785 -0.6857 -0.6725
vn 0.4044 0.6857 -0.6052
vn 0.4044 -0.6857 -0.6052
vn 0.5147 0.6857 -0.5147
vn 0.5147 -0.6857 -0.5147
vn 0.6052 0.6857 -0.4044
vn 0.6052 -0.6857 -0.4044
vn 0.6725 0.6857 -0.2785
vn 0.6725 -0.6857 -0.2785
vn 0.7139 0.6857 -0.1420
vn 0.7139 -0.6857 -0.1420
vn 0.7279 0.6857 0.0000
vn 0.7279 -0.6857 0.0000
vn 0.7139 0.6857 0.1420
vn 0.7139 -0.6857 0.1420
vn 0.6725 0.6857 0.2785
vn 0.6725 -0.6857 0.2785
vn 0.6052 0.6857 0.4044
vn 0.6052 -0.6857 0.4044
vn 0.5147 0.6857 0.5147
vn 0.5147 -0.6857 0.5147
vn 0.4044 0.6857 0.6052
vn 0.4044 -0.6857 0.6052
vn 0.2785 0.6857 0.6725
vn 0.2785 -0.6857 0.6725
vn 0.1420 0.6857 0.7139
vn 0.1420 -0.6857 0.7139
vn 0.0000 0.6857 0.7279
vn 0.0000 -0.6857 0.7279
vn -0.1420 0.6857 0.7139
vn -0.1420 -0.6857 0.7139
vn -0.2785 0.6857 0.6725
vn -0.2785 -0.6857 0.6725
vn -0.4044 0.6857 0.6052
vn -0.4044 -0.6857 0.6052
vn -0.5147 0.6857 0.5147
vn -0.5147 -0.6857 0.5147
vn -0.6052 0.6857 0.4044
vn -0.6052 -0.6857 0.4044
vn -0.6725 0.6857 0.2785
vn -0.6725 -0.6857 0.2785
vn -0.7139 0.6857 0.1420
vn -0.7139 -0.6857 0.1420
vn -0.7279 0.6857 0.0000
vn -0.7279 -0.6857 0.0000
vn -0.7139 0.6857 -0.1420
vn -0.7139 -0.6857 -0.1420
vn -0.6725 0.6857 -0.2785
vn -0.6725 -0.6857 -0.2785
vn -0.6052 0.6857 -0.4044
vn -0.6052 -0.6857 -0.4044
vn -0.5147 0.6857 -0.5147
vn -0.5147 -0.6857 -0.5147
vn -0.4044 0.6857 -0.6052
vn -0.4044 -0.6857 -0.6052
vn -0.2785 0.6857 -0.6725
vn -0.2785 -0.6857 -0.6725
vn -0.1420 0.6857 -0.7139
vn -0.1420 -0.6857 -0.7139
usemtl Material.001
s 1
f 193//193 194//194 196//195 195//196
f 195//196 196//195 198//197 197//198
f 197//198 198//197 200//199 199//200
f 199//200 200//199 202//201 201//202
f 201//202 202//201 204//203 203//204
f 203//204 204//203 206//205 205//206
f 205//206 206//205 208//207 207//208
f 207//208 208//207 210//209 209//210
f 209//210 210//209 212//211 211//212
f 211//212 212//211 214//213 213//214
f 213//214 214//213 216//215 215//216
f 215//216 216//215 218//217 217//218
f 217//218 218//217 220//219 219//220
f 219//220 220//219 222//221 221//222
f 221//222 222//221 224//223 223//224
f 223//224 224//223 226//225 225//226
f 225//226 226//225 228//227 227//228
f 227//228 228//227 230//229 229//230
f 229//230 230//229 232//231 231//232
f 231//232 232//231 234//233 233//234
f 233//234 234//233 236//235 235//236
f 235//236 236//235 238//237 237//238
f 237//238 238//237 240//239 239//240
f 239//240 240//239 242//241 241//242
f 241//242 242//241 244//243 243//244
f 243//244 244//243 246//245 245//246
f 245//246 246//245 248//247 247//248
f 247//248 248//247 250//249 249//250
f 249//250 250//249 252//251 251//252
f 251//252 252//251 254//253 253//254
f 196//195 194//194 256//255 254//253 252//251 250//249 248//247 246//245 244//243 242//241 240//239 238//237 236//235 234//233 232//231 230//229 228//227 226//225 224//223 222//221 220//219 218//217 216//215 214//213 212//211 210//209 208//207 206//205 204//203 202//201 200//199 198//197
f 253//254 254//253 256//255 255//256
f 255//256 256//255 194//194 193//193
f 193//193 195//196 197//198 199//200 201//202 203//204 205//206 207//208 209//210 211//212 213//214 215//216 217//218 219//220 221//222 223//224 225//226 227//228 229//230 231//232 233//234 235//236 237//238 239//240 241//242 243//244 245//246 247//248 249//250 251//252 253//254 255//256
o Cube
v 3.133163 2.244548 -1.614194
v 3.133163 2.244548 1.609847
v -3.133164 2.244548 1.609846
v -3.133162 2.244548 -1.614195
v 3.133165 2.293766 -1.614194
v 3.133161 2.293766 1.609848
v -3.133164 2.293766 1.609846
v -3.133163 2.293766 -1.614195
vn 0.5773 -0.5773 -0.5773
vn 0.5773 -0.5773 0.5773
vn -0.5773 -0.5773 0.5773
vn -0.5773 -0.5773 -0.5773
vn 0.5773 0.5773 -0.5773
vn -0.5773 0.5773 -0.5773
vn -0.5773 0.5773 0.5773
vn 0.5773 0.5773 0.5773
usemtl Material
s 1
f 257//257 258//258 259//259 260//260
f 261//261 264//262 263//263 262//264
f 257//257 261//261 262//264 258//258
f 258//258 262//264 263//263 259//259
f 259//259 263//263 264//262 260//260
f 261//261 257//257 260//260 264//262
